<svg xmlns="http://www.w3.org/2000/svg" xmlns:xlink="http://www.w3.org/1999/xlink" viewBox="0 0 1366 768"><defs><style>.cls-1{fill:none;}.cls-2{fill:#f6f6f6;}.cls-3{fill:#eaeaea;}.cls-4{fill:url(#Áåçûìÿííûé_ãðàäèåíò_515);}.cls-5{fill:url(#Áåçûìÿííûé_ãðàäèåíò_19);}.cls-6{fill:url(#Áåçûìÿííûé_ãðàäèåíò_515-2);}.cls-7{fill:#fff;}.cls-8{fill:url(#Áåçûìÿííûé_ãðàäèåíò_515-3);}.cls-9{fill:url(#Áåçûìÿííûé_ãðàäèåíò_132);}.cls-10,.cls-12{opacity:0.5;}.cls-11,.cls-12{fill:#380031;}.cls-13{fill:url(#Áåçûìÿííûé_ãðàäèåíò_108);}.cls-14{fill:url(#Áåçûìÿííûé_ãðàäèåíò_108-2);}.cls-15{fill:url(#Áåçûìÿííûé_ãðàäèåíò_47);}.cls-16{fill:#06033e;opacity:0.4;}.cls-17{fill:url(#Áåçûìÿííûé_ãðàäèåíò_108-3);}.cls-18{fill:url(#Áåçûìÿííûé_ãðàäèåíò_107);}.cls-19{fill:url(#Áåçûìÿííûé_ãðàäèåíò_107-2);}.cls-20{fill:url(#Áåçûìÿííûé_ãðàäèåíò_47-2);}.cls-21{clip-path:url(#clip-path);}.cls-22{fill:url(#Áåçûìÿííûé_ãðàäèåíò_107-3);}.cls-23{fill:#d8d8d8;}.cls-24{fill:url(#Áåçûìÿííûé_ãðàäèåíò_47-3);}.cls-25{fill:url(#Áåçûìÿííûé_ãðàäèåíò_47-4);}.cls-26{fill:url(#Áåçûìÿííûé_ãðàäèåíò_47-5);}.cls-27{fill:url(#Áåçûìÿííûé_ãðàäèåíò_6);}</style><linearGradient id="Áåçûìÿííûé_ãðàäèåíò_515" x1="418.47" y1="413.54" x2="786.2" y2="413.54" gradientTransform="translate(522.91)" gradientUnits="userSpaceOnUse"><stop offset="0" stop-color="#b6246e"/><stop offset="1" stop-color="#f9636b"/></linearGradient><linearGradient id="Áåçûìÿííûé_ãðàäèåíò_19" x1="490.62" y1="594.77" x2="697.13" y2="594.77" gradientTransform="translate(522.91)" gradientUnits="userSpaceOnUse"><stop offset="0" stop-color="#f9636b"/><stop offset="0.32" stop-color="#b7256e"/><stop offset="1" stop-color="#b6246e"/></linearGradient><linearGradient id="Áåçûìÿííûé_ãðàäèåíò_515-2" x1="724.35" y1="572.15" x2="330.87" y2="593.16" xlink:href="#Áåçûìÿííûé_ãðàäèåíò_515"/><linearGradient id="Áåçûìÿííûé_ãðàäèåíò_515-3" x1="787.63" y1="409.9" x2="420.02" y2="418.98" xlink:href="#Áåçûìÿííûé_ãðàäèåíò_515"/><radialGradient id="Áåçûìÿííûé_ãðàäèåíò_132" cx="940.77" cy="239.58" r="503.95" gradientUnits="userSpaceOnUse"><stop offset="0" stop-color="#e0f1f4"/><stop offset="0.14" stop-color="#d6eef2"/><stop offset="0.36" stop-color="#bde5ee"/><stop offset="0.37" stop-color="#bce5ee"/><stop offset="0.54" stop-color="#a4deea"/><stop offset="0.9" stop-color="#67cae0"/><stop offset="1" stop-color="#56c5dd"/></radialGradient><radialGradient id="Áåçûìÿííûé_ãðàäèåíò_108" cx="998.35" cy="563.14" r="109.89" gradientUnits="userSpaceOnUse"><stop offset="0" stop-color="#01c8ef"/><stop offset="0.28" stop-color="#0899cb"/><stop offset="0.77" stop-color="#134d8f"/><stop offset="1" stop-color="#172f78"/></radialGradient><radialGradient id="Áåçûìÿííûé_ãðàäèåíò_108-2" cx="947.17" cy="489.03" r="113" xlink:href="#Áåçûìÿííûé_ãðàäèåíò_108"/><radialGradient id="Áåçûìÿííûé_ãðàäèåíò_47" cx="1052.84" cy="388.18" r="53.36" gradientUnits="userSpaceOnUse"><stop offset="0" stop-color="#f9636b"/><stop offset="1" stop-color="#b6246e"/></radialGradient><radialGradient id="Áåçûìÿííûé_ãðàäèåíò_108-3" cx="901.13" cy="317.69" r="199.17" xlink:href="#Áåçûìÿííûé_ãðàäèåíò_108"/><radialGradient id="Áåçûìÿííûé_ãðàäèåíò_107" cx="854.06" cy="364.22" r="172.29" gradientUnits="userSpaceOnUse"><stop offset="0" stop-color="#01c8ef"/><stop offset="0.21" stop-color="#01c5ed"/><stop offset="0.37" stop-color="#03bbe5"/><stop offset="0.51" stop-color="#05abd8"/><stop offset="0.65" stop-color="#0993c6"/><stop offset="0.78" stop-color="#0d75af"/><stop offset="0.9" stop-color="#125192"/><stop offset="1" stop-color="#172f78"/></radialGradient><radialGradient id="Áåçûìÿííûé_ãðàäèåíò_107-2" cx="738.28" cy="351.39" r="321.1" gradientTransform="translate(355.41 -383.81) rotate(30)" xlink:href="#Áåçûìÿííûé_ãðàäèåíò_107"/><radialGradient id="Áåçûìÿííûé_ãðàäèåíò_47-2" cx="882.36" cy="548.75" r="145.9" gradientTransform="translate(355.41 -383.81) rotate(30)" xlink:href="#Áåçûìÿííûé_ãðàäèåíò_47"/><clipPath id="clip-path"><ellipse class="cls-1" cx="893.86" cy="471.26" rx="55.58" ry="96.27" transform="translate(-115.88 510.09) rotate(-30)"/></clipPath><radialGradient id="Áåçûìÿííûé_ãðàäèåíò_107-3" cx="868.74" cy="459.46" r="72.81" gradientTransform="translate(355.41 -383.81) rotate(30)" xlink:href="#Áåçûìÿííûé_ãðàäèåíò_107"/><radialGradient id="Áåçûìÿííûé_ãðàäèåíò_47-3" cx="1045.59" cy="500.34" r="21.9" gradientTransform="translate(-45.13 46.64) rotate(-1.81)" xlink:href="#Áåçûìÿííûé_ãðàäèåíò_47"/><radialGradient id="Áåçûìÿííûé_ãðàäèåíò_47-4" cx="1057.23" cy="500.36" r="27.37" gradientTransform="translate(-45.13 46.64) rotate(-1.81)" xlink:href="#Áåçûìÿííûé_ãðàäèåíò_47"/><radialGradient id="Áåçûìÿííûé_ãðàäèåíò_47-5" cx="453.35" cy="102.6" r="113.39" xlink:href="#Áåçûìÿííûé_ãðàäèåíò_47"/><radialGradient id="Áåçûìÿííûé_ãðàäèåíò_6" cx="424.92" cy="119.13" r="221.12" gradientUnits="userSpaceOnUse"><stop offset="0" stop-color="#f9636b"/><stop offset="0.87" stop-color="#bf2c6e"/><stop offset="1" stop-color="#b6246e"/></radialGradient></defs><title>Layer 1</title><g id="Layer_2" data-name="Layer 2"><g id="Layer_1-2" data-name="Layer 1"><rect class="cls-2" width="1366" height="768"/><path class="cls-3" d="M1042.72,764.42,765.08,604.12c-4.05-2.33-3.54-6.41,1.13-9.11L944.4,492.13c4.68-2.7,11.75-3,15.79-.66l277.65,160.3c4,2.34,3.54,6.42-1.14,9.12L1058.51,763.77C1053.84,766.47,1046.77,766.76,1042.72,764.42Z"/><path class="cls-4" d="M1303.37,381.05,1017.56,216a7.4,7.4,0,0,0-5.84-.84h0l-5.3,1.84,1.87.44a9.3,9.3,0,0,0-1.75,3.27L941.89,430.62c-1.61,5.21.74,11.53,5.23,14.12l285.82,165a8.27,8.27,0,0,0,2.1.85l-.71,1.55,5.06-1.78h0A8.09,8.09,0,0,0,1244,605l64.64-209.86C1310.21,390,1307.86,383.65,1303.37,381.05Z"/><path class="cls-5" d="M1222.71,617.59l.1.12-282.31-163c-4.15-2.4-11.41-2.09-16.2.67L741.9,560.7l-6.08-2.32,1.7,8.53h0a5.12,5.12,0,0,0,2.74,3.41l284.92,164.5c4.15,2.4,11.41,2.1,16.2-.67l182.86-105.58c2.26-1.3,3.56-2.92,3.88-4.51h0l1.74-8.3Z"/><path class="cls-6" d="M1025.49,727.31,738.55,561.65c-4.18-2.42-3.66-6.63,1.17-9.42L923.88,445.9c4.83-2.79,12.14-3.09,16.32-.67l286.94,165.66c4.18,2.42,3.66,6.63-1.17,9.42L1041.81,726.64C1037,729.43,1029.67,729.73,1025.49,727.31Z"/><path class="cls-7" d="M738.55,556.83,1025.49,722.5c4.18,2.41,11.49,2.11,16.32-.68L1226,615.49a9,9,0,0,0,3.15-2.85c1.74,2.39.66,5.47-3.15,7.67L1041.81,726.64c-4.83,2.79-12.14,3.09-16.32.67L738.55,561.65c-2.91-1.68-3.49-4.23-2-6.57A6.35,6.35,0,0,0,738.55,556.83Z"/><path class="cls-8" d="M1228.07,611.46l-285.82-165c-4.49-2.6-6.84-8.92-5.23-14.12l64.63-209.86c1.6-5.21,6.54-7.32,11-4.73l285.81,165c4.49,2.59,6.84,8.91,5.24,14.12L1239.1,606.74C1237.5,611.94,1232.56,614.06,1228.07,611.46Z"/><path class="cls-9" d="M1225.37,604.11,948.15,443.92c-4.3-2.48-6.55-8.53-5-13.51l61.79-200.62c1.53-5,6.26-7,10.56-4.52l277.22,160.18c4.3,2.49,6.55,8.54,5,13.52l-61.8,200.62C1234.4,604.57,1229.67,606.59,1225.37,604.11Z"/><g class="cls-10"><path class="cls-11" d="M881.67,531.27l-9.49-5.48c-.76-.44-.67-1.2.21-1.71l11.21-6.47a3.29,3.29,0,0,1,3-.12l9.49,5.48c.76.44.66,1.2-.22,1.71l-11.2,6.47A3.29,3.29,0,0,1,881.67,531.27Z"/><path class="cls-11" d="M896.33,539.73l-9.49-5.48c-.77-.44-.67-1.2.21-1.71l11.2-6.47a3.29,3.29,0,0,1,3-.12l9.49,5.48c.76.44.67,1.21-.21,1.71l-11.2,6.47A3.29,3.29,0,0,1,896.33,539.73Z"/><path class="cls-11" d="M911,548.19l-9.49-5.47c-.76-.44-.67-1.21.21-1.72l11.2-6.47a3.31,3.31,0,0,1,3-.12l9.49,5.48c.76.44.66,1.21-.22,1.71L914,548.07A3.29,3.29,0,0,1,911,548.19Z"/><path class="cls-11" d="M931.25,541.21l-9.49-5.48c-.76-.44-.67-1.21.21-1.72l9.41-5.43a3.32,3.32,0,0,1,3-.12l9.49,5.48c.76.44.66,1.21-.22,1.71l-9.4,5.43A3.29,3.29,0,0,1,931.25,541.21Z"/><path class="cls-11" d="M945.9,549.67l-9.49-5.48c-.76-.44-.66-1.21.22-1.72L946,537a3.32,3.32,0,0,1,3-.12l9.49,5.48c.76.44.67,1.21-.21,1.72l-9.4,5.42A3.31,3.31,0,0,1,945.9,549.67Z"/><path class="cls-11" d="M960.56,558.13l-9.49-5.48c-.76-.44-.67-1.21.21-1.72l9.4-5.43a3.34,3.34,0,0,1,3-.12l9.49,5.48c.76.44.66,1.21-.22,1.72l-9.4,5.43A3.32,3.32,0,0,1,960.56,558.13Z"/><path class="cls-11" d="M975.21,566.59l-9.49-5.48c-.76-.44-.66-1.21.22-1.72l9.4-5.42a3.29,3.29,0,0,1,3-.13l9.49,5.48c.76.44.67,1.21-.21,1.72l-9.4,5.43A3.34,3.34,0,0,1,975.21,566.59Z"/><path class="cls-11" d="M989.87,575.05l-9.49-5.48c-.76-.44-.67-1.21.21-1.71l9.4-5.43a3.31,3.31,0,0,1,3-.13l9.49,5.48c.76.44.66,1.21-.22,1.72l-9.4,5.43A3.29,3.29,0,0,1,989.87,575.05Z"/><path class="cls-11" d="M1004.52,583.51,995,578c-.76-.44-.66-1.21.22-1.71l9.4-5.43a3.29,3.29,0,0,1,3-.13l9.49,5.48c.76.44.67,1.21-.21,1.72l-9.41,5.43A3.29,3.29,0,0,1,1004.52,583.51Z"/><path class="cls-11" d="M1019.18,592l-9.49-5.48c-.76-.44-.67-1.2.21-1.71l9.4-5.43a3.31,3.31,0,0,1,3-.12l9.49,5.47c.76.44.66,1.21-.22,1.72l-9.4,5.43A3.29,3.29,0,0,1,1019.18,592Z"/><path class="cls-11" d="M1033.83,600.43l-9.49-5.48c-.76-.44-.66-1.2.22-1.71l9.4-5.43a3.29,3.29,0,0,1,3-.12l9.49,5.48c.76.44.67,1.2-.21,1.71l-9.41,5.43A3.29,3.29,0,0,1,1033.83,600.43Z"/><path class="cls-11" d="M1048.49,608.89l-9.49-5.47c-.76-.44-.67-1.21.21-1.72l9.4-5.43a3.31,3.31,0,0,1,3-.12l9.49,5.48c.76.44.66,1.2-.22,1.71l-9.4,5.43A3.29,3.29,0,0,1,1048.49,608.89Z"/><path class="cls-11" d="M1063.14,617.36l-9.49-5.48c-.76-.44-.66-1.21.22-1.72l9.4-5.43a3.29,3.29,0,0,1,3-.12l9.49,5.48c.76.44.67,1.21-.21,1.71l-9.41,5.43A3.29,3.29,0,0,1,1063.14,617.36Z"/><path class="cls-11" d="M952.84,537.2l-9.49-5.48c-.76-.44-.66-1.21.22-1.71l9.4-5.43a3.29,3.29,0,0,1,3-.13l9.49,5.48c.76.44.67,1.21-.21,1.72l-9.41,5.43A3.29,3.29,0,0,1,952.84,537.2Z"/><path class="cls-11" d="M938,528.61l-9.49-5.47c-.76-.44-.67-1.21.21-1.72l9.4-5.43a3.31,3.31,0,0,1,3-.12l9.49,5.48c.76.44.66,1.2-.22,1.71l-9.4,5.43A3.29,3.29,0,0,1,938,528.61Z"/><path class="cls-11" d="M923.07,520l-20.44-11.8c-.76-.44-.66-1.21.22-1.71l9.4-5.43a3.29,3.29,0,0,1,3-.13l20.44,11.8c.76.44.67,1.21-.21,1.72L926,519.89A3.29,3.29,0,0,1,923.07,520Z"/><path class="cls-11" d="M933.48,509.55,916.9,500c-.76-.44-.67-1.21.21-1.72l9.4-5.43a3.31,3.31,0,0,1,3-.12l16.58,9.57c.76.44.67,1.21-.21,1.72l-9.4,5.43A3.31,3.31,0,0,1,933.48,509.55Z"/><path class="cls-11" d="M967.5,545.66,958,540.18c-.77-.44-.67-1.21.21-1.71l9.4-5.43a3.31,3.31,0,0,1,3-.12l9.48,5.47c.77.44.67,1.21-.21,1.72l-9.4,5.43A3.29,3.29,0,0,1,967.5,545.66Z"/><path class="cls-11" d="M982.15,554.12l-9.49-5.48c-.76-.44-.67-1.2.21-1.71l9.41-5.43a3.29,3.29,0,0,1,3-.12l9.49,5.47c.76.44.67,1.21-.21,1.72L985.12,554A3.29,3.29,0,0,1,982.15,554.12Z"/><path class="cls-11" d="M996.81,562.58l-9.49-5.48c-.77-.43-.67-1.2.21-1.71l9.4-5.43a3.29,3.29,0,0,1,3-.12l9.49,5.48c.77.44.67,1.2-.21,1.71l-9.4,5.43A3.29,3.29,0,0,1,996.81,562.58Z"/><path class="cls-11" d="M1011.46,571l-9.49-5.47c-.76-.44-.67-1.21.21-1.72l9.41-5.43a3.29,3.29,0,0,1,3-.12l9.49,5.48c.76.44.67,1.21-.21,1.71l-9.41,5.43A3.29,3.29,0,0,1,1011.46,571Z"/><path class="cls-11" d="M1026.12,579.51l-9.49-5.48c-.77-.44-.67-1.21.21-1.72l9.4-5.43a3.29,3.29,0,0,1,3-.12l9.49,5.48c.77.44.67,1.21-.21,1.71l-9.4,5.43A3.29,3.29,0,0,1,1026.12,579.51Z"/><path class="cls-11" d="M1040.77,588l-9.49-5.48c-.76-.44-.67-1.21.21-1.72l9.41-5.43a3.29,3.29,0,0,1,3-.12l9.49,5.48c.76.44.66,1.21-.21,1.71l-9.41,5.43A3.29,3.29,0,0,1,1040.77,588Z"/><path class="cls-11" d="M1055.42,596.43l-9.48-5.48c-.77-.44-.67-1.21.21-1.72l9.4-5.43a3.32,3.32,0,0,1,3-.12l9.49,5.48c.77.44.67,1.21-.21,1.72l-9.4,5.42A3.31,3.31,0,0,1,1055.42,596.43Z"/><path class="cls-11" d="M1070.08,604.89l-9.49-5.48c-.76-.44-.67-1.21.21-1.72l9.41-5.43a3.32,3.32,0,0,1,3-.12l9.49,5.48c.76.44.66,1.21-.22,1.72l-9.4,5.43A3.32,3.32,0,0,1,1070.08,604.89Z"/><path class="cls-11" d="M1084.73,613.35l-9.49-5.48c-.76-.44-.66-1.21.22-1.72l9.4-5.42a3.29,3.29,0,0,1,3-.13l9.49,5.48c.76.44.67,1.21-.21,1.72l-9.4,5.43A3.34,3.34,0,0,1,1084.73,613.35Z"/><path class="cls-11" d="M1110.79,628.39l-20.71-11.95c-.76-.44-.66-1.21.22-1.72l9.4-5.43a3.29,3.29,0,0,1,3-.12l20.71,12c.76.44.66,1.21-.22,1.72l-9.4,5.43A3.29,3.29,0,0,1,1110.79,628.39Z"/><path class="cls-11" d="M1139.32,611.92l-17.48-10.09c-.76-.44-.66-1.21.22-1.72l9.4-5.43a3.32,3.32,0,0,1,3-.12l17.48,10.09c.76.44.66,1.21-.22,1.72l-9.4,5.43A3.32,3.32,0,0,1,1139.32,611.92Z"/><path class="cls-11" d="M993.16,544l-9.49-5.48c-.76-.44-.67-1.21.21-1.72l9.41-5.43a3.29,3.29,0,0,1,3-.12l9.49,5.48c.76.44.66,1.21-.22,1.71l-9.4,5.43A3.29,3.29,0,0,1,993.16,544Z"/><path class="cls-11" d="M978.14,535.34l-9.49-5.48c-.76-.44-.67-1.21.21-1.72l9.41-5.43a3.29,3.29,0,0,1,3-.12l9.49,5.48c.76.44.67,1.21-.21,1.71l-9.41,5.43A3.29,3.29,0,0,1,978.14,535.34Z"/><path class="cls-11" d="M963.12,526.66l-9.49-5.48c-.76-.44-.66-1.2.21-1.71l9.41-5.43a3.29,3.29,0,0,1,3-.12l9.49,5.48c.76.44.67,1.2-.21,1.71l-9.41,5.43A3.29,3.29,0,0,1,963.12,526.66Z"/><path class="cls-11" d="M948.1,518l-9.49-5.48c-.76-.44-.66-1.2.22-1.71l9.4-5.43a3.29,3.29,0,0,1,3-.12l9.49,5.47c.76.44.67,1.21-.21,1.72l-9.41,5.43A3.29,3.29,0,0,1,948.1,518Z"/><path class="cls-11" d="M1007.81,552.47,998.32,547c-.76-.44-.66-1.21.22-1.72l9.4-5.43a3.32,3.32,0,0,1,3-.12l9.49,5.48c.77.44.67,1.21-.21,1.72l-9.4,5.42A3.31,3.31,0,0,1,1007.81,552.47Z"/><path class="cls-11" d="M1022.47,560.93l-9.49-5.48c-.76-.44-.67-1.21.21-1.72l9.41-5.43a3.32,3.32,0,0,1,3-.12l9.49,5.48c.76.44.66,1.21-.22,1.72l-9.4,5.43A3.32,3.32,0,0,1,1022.47,560.93Z"/><path class="cls-11" d="M1037.12,569.39l-9.49-5.48c-.76-.44-.66-1.21.22-1.72l9.4-5.42a3.29,3.29,0,0,1,3-.13l9.49,5.48c.76.44.67,1.21-.21,1.72l-9.4,5.43A3.34,3.34,0,0,1,1037.12,569.39Z"/><path class="cls-11" d="M1051.78,577.85l-9.49-5.48c-.76-.44-.67-1.21.21-1.71l9.41-5.43a3.29,3.29,0,0,1,3-.13l9.49,5.48c.76.44.66,1.21-.22,1.72l-9.4,5.43A3.32,3.32,0,0,1,1051.78,577.85Z"/><path class="cls-11" d="M1066.43,586.31l-9.49-5.48c-.76-.44-.66-1.21.22-1.71l9.4-5.43a3.29,3.29,0,0,1,3-.13L1079,579c.76.44.67,1.21-.21,1.72l-9.4,5.43A3.31,3.31,0,0,1,1066.43,586.31Z"/><path class="cls-11" d="M1081.09,594.77l-9.49-5.48c-.76-.44-.67-1.21.21-1.71l9.4-5.43a3.31,3.31,0,0,1,3-.12l9.49,5.47c.76.44.66,1.21-.22,1.72l-9.4,5.43A3.29,3.29,0,0,1,1081.09,594.77Z"/><path class="cls-11" d="M1095.74,603.23l-9.49-5.48c-.76-.44-.66-1.2.22-1.71l9.4-5.43a3.29,3.29,0,0,1,3-.12l9.49,5.47c.76.44.67,1.21-.21,1.72l-9.4,5.43A3.31,3.31,0,0,1,1095.74,603.23Z"/><path class="cls-11" d="M1110.4,611.69l-9.49-5.47c-.76-.44-.67-1.21.21-1.72l9.4-5.43a3.31,3.31,0,0,1,3-.12l9.49,5.48c.76.44.66,1.2-.22,1.71l-9.4,5.43A3.29,3.29,0,0,1,1110.4,611.69Z"/><path class="cls-11" d="M1125.05,620.15l-9.49-5.47c-.76-.44-.66-1.21.22-1.72l9.4-5.43a3.29,3.29,0,0,1,3-.12l9.49,5.48c.76.44.67,1.21-.21,1.71L1128,620A3.31,3.31,0,0,1,1125.05,620.15Z"/><path class="cls-11" d="M985.44,523.08,976,517.6c-.76-.44-.66-1.21.22-1.72l9.4-5.42a3.29,3.29,0,0,1,3-.13l9.49,5.48c.76.44.67,1.21-.21,1.72l-9.4,5.43A3.34,3.34,0,0,1,985.44,523.08Z"/><path class="cls-11" d="M970.86,514.66l-9.49-5.48c-.76-.44-.66-1.21.22-1.71L971,502a3.29,3.29,0,0,1,3-.13l9.49,5.48c.76.44.67,1.21-.21,1.72l-9.41,5.43A3.32,3.32,0,0,1,970.86,514.66Z"/><path class="cls-11" d="M956.28,506.24l-9.49-5.48c-.76-.44-.67-1.21.21-1.71l9.41-5.43a3.29,3.29,0,0,1,3-.13l9.49,5.48c.76.44.66,1.21-.22,1.72l-9.4,5.43A3.29,3.29,0,0,1,956.28,506.24Z"/><path class="cls-11" d="M941.7,497.82l-9.49-5.48c-.76-.44-.67-1.2.21-1.71l9.4-5.43a3.31,3.31,0,0,1,3-.12l9.49,5.47c.76.44.66,1.21-.22,1.72l-9.4,5.43A3.29,3.29,0,0,1,941.7,497.82Z"/><path class="cls-11" d="M956.69,489.17l-9.49-5.48c-.76-.44-.66-1.21.22-1.72l3.1-1.79a3.31,3.31,0,0,1,3-.13l9.49,5.48c.76.44.66,1.21-.22,1.72L959.66,489A3.29,3.29,0,0,1,956.69,489.17Z"/><path class="cls-11" d="M975.72,500.15l-9.49-5.48c-.76-.44-.66-1.21.22-1.71l3.1-1.8a3.31,3.31,0,0,1,3-.12l9.49,5.48c.76.44.66,1.21-.22,1.71l-3.11,1.8A3.29,3.29,0,0,1,975.72,500.15Z"/><path class="cls-11" d="M990.24,508.54l-9.49-5.48c-.76-.44-.66-1.21.22-1.72l3.1-1.79a3.31,3.31,0,0,1,3-.13l9.49,5.48c.76.44.66,1.21-.22,1.72l-3.1,1.79A3.31,3.31,0,0,1,990.24,508.54Z"/><path class="cls-11" d="M1004.76,516.92l-9.49-5.48c-.76-.44-.66-1.21.22-1.72l3.11-1.79a3.29,3.29,0,0,1,3-.12l9.49,5.48c.76.44.66,1.2-.22,1.71l-3.1,1.8A3.34,3.34,0,0,1,1004.76,516.92Z"/><path class="cls-11" d="M1019.28,525.3l-9.48-5.48c-.77-.44-.67-1.2.21-1.71l3.11-1.8a3.32,3.32,0,0,1,3-.12l9.49,5.48c.76.44.67,1.21-.21,1.72l-3.11,1.79A3.31,3.31,0,0,1,1019.28,525.3Z"/><path class="cls-11" d="M1100.35,572.11l-9.49-5.48c-.76-.44-.66-1.21.22-1.72l3.11-1.79a3.29,3.29,0,0,1,3-.12l9.49,5.47c.76.44.66,1.21-.22,1.72l-3.1,1.8A3.34,3.34,0,0,1,1100.35,572.11Z"/><path class="cls-11" d="M1114.87,580.49l-9.48-5.48c-.77-.44-.67-1.21.21-1.71l3.11-1.8a3.29,3.29,0,0,1,3-.12l9.49,5.48c.76.44.67,1.21-.21,1.71l-3.11,1.8A3.31,3.31,0,0,1,1114.87,580.49Z"/><path class="cls-11" d="M1129.4,588.88l-9.49-5.48c-.77-.44-.67-1.21.21-1.72l3.11-1.79a3.29,3.29,0,0,1,3-.13l9.49,5.48c.76.44.67,1.21-.21,1.72l-3.11,1.79A3.29,3.29,0,0,1,1129.4,588.88Z"/><path class="cls-11" d="M1143.92,597.26l-9.49-5.48c-.76-.44-.67-1.21.21-1.72l3.11-1.79a3.29,3.29,0,0,1,3-.12l9.49,5.48c.76.44.67,1.2-.21,1.71l-3.11,1.8A3.32,3.32,0,0,1,1143.92,597.26Z"/><path class="cls-11" d="M1000.1,531.54l-9.49-5.48c-.76-.44-.67-1.21.21-1.72l9.4-5.42a3.31,3.31,0,0,1,3-.13l9.49,5.48c.76.44.66,1.21-.22,1.72l-9.4,5.43A3.32,3.32,0,0,1,1000.1,531.54Z"/><path class="cls-11" d="M1014.75,540l-9.49-5.48c-.76-.44-.66-1.21.22-1.71l9.4-5.43a3.29,3.29,0,0,1,3-.13l9.49,5.48c.76.44.67,1.21-.21,1.72l-9.4,5.43A3.31,3.31,0,0,1,1014.75,540Z"/><path class="cls-11" d="M1029.41,548.46l-9.49-5.48c-.76-.44-.67-1.21.21-1.71l9.4-5.43a3.31,3.31,0,0,1,3-.13l9.49,5.48c.76.44.66,1.21-.22,1.72l-9.4,5.43A3.29,3.29,0,0,1,1029.41,548.46Z"/><path class="cls-11" d="M1044.06,556.92l-9.49-5.48c-.76-.44-.66-1.2.22-1.71l9.4-5.43a3.29,3.29,0,0,1,3-.12l9.49,5.47c.76.44.67,1.21-.21,1.72L1047,556.8A3.29,3.29,0,0,1,1044.06,556.92Z"/><path class="cls-11" d="M1058.72,565.38l-9.49-5.48c-.76-.44-.67-1.2.21-1.71l9.4-5.43a3.31,3.31,0,0,1,3-.12l9.49,5.48c.76.44.66,1.2-.22,1.71l-9.4,5.43A3.29,3.29,0,0,1,1058.72,565.38Z"/><path class="cls-11" d="M1073.37,573.84l-9.49-5.47c-.76-.44-.66-1.21.22-1.72l9.4-5.43a3.29,3.29,0,0,1,3-.12l9.49,5.48c.76.44.67,1.2-.21,1.71l-9.41,5.43A3.29,3.29,0,0,1,1073.37,573.84Z"/><path class="cls-11" d="M1088,582.31l-9.49-5.48c-.77-.44-.67-1.21.21-1.72l9.4-5.43a3.31,3.31,0,0,1,3-.12l9.48,5.48c.77.44.67,1.21-.21,1.71l-9.4,5.43A3.29,3.29,0,0,1,1088,582.31Z"/><path class="cls-11" d="M1102.68,590.77l-9.49-5.48c-.76-.44-.66-1.21.21-1.72l9.41-5.43a3.29,3.29,0,0,1,3-.12l9.49,5.48c.76.44.67,1.21-.21,1.71l-9.41,5.43A3.29,3.29,0,0,1,1102.68,590.77Z"/><path class="cls-11" d="M1117.34,599.23l-9.49-5.48c-.77-.44-.67-1.21.21-1.72l9.4-5.43a3.32,3.32,0,0,1,3-.12l9.49,5.48c.77.44.67,1.21-.21,1.72l-9.4,5.42A3.29,3.29,0,0,1,1117.34,599.23Z"/><path class="cls-11" d="M916.31,532.58l-27.94-16.13c-.77-.44-.67-1.21.21-1.72l9.4-5.43a3.34,3.34,0,0,1,3-.12l27.94,16.14c.76.44.67,1.2-.21,1.71l-9.4,5.43A3.31,3.31,0,0,1,916.31,532.58Z"/><path class="cls-11" d="M1096.35,636.53l-27.95-16.14c-.76-.44-.66-1.2.22-1.71l9.4-5.43a3.29,3.29,0,0,1,3-.12l28,16.13c.76.44.67,1.21-.21,1.72l-9.41,5.43A3.32,3.32,0,0,1,1096.35,636.53Z"/><path class="cls-11" d="M1037.75,621.38l-9.49-5.48c-.77-.44-.67-1.21.21-1.71l11.2-6.47a3.29,3.29,0,0,1,3-.12l9.49,5.48c.76.44.67,1.2-.21,1.71l-11.2,6.47A3.29,3.29,0,0,1,1037.75,621.38Z"/><path class="cls-11" d="M931.32,559.94l-15.17-8.76c-.77-.44-.67-1.21.21-1.72l11.2-6.47a3.32,3.32,0,0,1,3-.12l15.18,8.76c.76.44.67,1.21-.21,1.72l-11.21,6.47A3.32,3.32,0,0,1,931.32,559.94Z"/><path class="cls-11" d="M1023.62,613.23l-15.17-8.76c-.76-.44-.67-1.21.21-1.72l11.2-6.47a3.34,3.34,0,0,1,3-.12l15.17,8.76c.76.44.67,1.21-.21,1.72l-11.2,6.47A3.34,3.34,0,0,1,1023.62,613.23Z"/><path class="cls-11" d="M952.47,572.15l-15.18-8.77c-.76-.44-.67-1.2.21-1.71l11.2-6.47a3.31,3.31,0,0,1,3-.12l15.17,8.76c.76.44.67,1.21-.21,1.72L955.44,572A3.29,3.29,0,0,1,952.47,572.15Z"/><path class="cls-11" d="M951.78,555.14l66,38.09a.9.9,0,0,1,0,1.71l-11.42,6.6a3.3,3.3,0,0,1-3,0l-66-38.1Z"/><path class="cls-11" d="M1078.7,636.72l10.57,6.11c.63.36.55,1-.17,1.4l-4.58,2.65a2.74,2.74,0,0,1-2.44.1l-10.57-6.1c-.63-.37-.55-1,.17-1.41l4.59-2.65A2.72,2.72,0,0,1,1078.7,636.72Z"/><path class="cls-11" d="M1063.93,628.19l10.57,6.1c.62.36.54,1-.18,1.41l-4.58,2.65a2.74,2.74,0,0,1-2.44.1l-10.57-6.11c-.62-.36-.54-1,.18-1.4l4.58-2.65A2.74,2.74,0,0,1,1063.93,628.19Z"/><path class="cls-11" d="M1049.27,619.73l10.57,6.1c.63.36.55,1-.17,1.41l-4.58,2.65a2.74,2.74,0,0,1-2.44.1l-10.57-6.11c-.63-.36-.55-1,.17-1.4l4.59-2.65A2.68,2.68,0,0,1,1049.27,619.73Z"/><path class="cls-11" d="M1072,623.52l10.57,6.1c.62.36.55,1-.18,1.41l-4.58,2.64a2.65,2.65,0,0,1-2.43.1l-10.57-6.1c-.63-.36-.55-1,.17-1.4l4.58-2.65A2.71,2.71,0,0,1,1072,623.52Z"/></g><path class="cls-12" d="M953.2,652.46a13.64,13.64,0,0,1-6.73-1.58l-73.65-42.52a5.14,5.14,0,0,1-2.94-4.39c0-2,1.45-4,4-5.48l37.92-21.89c4.58-2.65,11.3-2.91,15.31-.59l73.65,42.52a5.14,5.14,0,0,1,2.94,4.38c0,2-1.45,4-4,5.49l-37.91,21.89A17.64,17.64,0,0,1,953.2,652.46Zm-5.84-3.12c3.44,2,9.51,1.72,13.53-.6l37.91-21.89c2-1.13,3.09-2.57,3.09-3.94a3.53,3.53,0,0,0-2-2.84l-73.65-42.52c-3.45-2-9.51-1.72-13.53.6L874.75,600c-2,1.13-3.09,2.56-3.09,3.93a3.54,3.54,0,0,0,2.05,2.85Z"/><path class="cls-12" d="M1181.19,584.36l-16.93-.74c-8.46-4.77-17.33-6.51-25-5.47l-6.25-3.81h0L1080,542l-1.79-1.09c-.46-.28-.93-.54-1.43-.8a46.56,46.56,0,0,0-12.56-4.15c-.66-.12-1.32-.24-2-.34a45.63,45.63,0,0,0-13.22-.31c-4.28.64-6.79,2.06-7.43,3.85h0l-3.82,8.53h0c-1.72,2.06-.49,4.83,3.93,7.52L1074.16,575l9.34,5.84a462.21,462.21,0,0,1-71.07-6.24A76.35,76.35,0,0,0,995,571.48l-.87-.16,0,.1a62.83,62.83,0,0,0-12,.55h0l-.45.07-.2,0L969.1,574H969l-.12,0h0c-15,2.36-27.43,10.45-33.59,23.72-12.35,26.63,5,64,38.76,83.5,16.44,9.5,33.74,13,48.59,11l-.07,0,.82-.13.73-.11,2.25-.34,1-.14h0l9-1.36.11,0h.08c9.91-1.56,18.65-5.61,25.23-12,29.78-17.42,66.18-30.61,106.37-38.52l.93-.19.19,0,.15,0v0c6.92-1.6,12.54-5.65,15.47-12,.17-.37.32-.74.47-1.12l27.19-10.68h0a10.71,10.71,0,0,0,6-5.5,11.36,11.36,0,0,0,1-3.58Z"/><path class="cls-7" d="M1092.28,323.44l-17.34-10a4.51,4.51,0,0,1-1.93-5h0a2.57,2.57,0,0,1,3.9-1.63l17.35,10a4.5,4.5,0,0,1,1.92,5h0A2.57,2.57,0,0,1,1092.28,323.44Z"/><path class="cls-7" d="M1133.6,347.29,1108,332.53a4.52,4.52,0,0,1-1.93-5h0a2.56,2.56,0,0,1,3.9-1.62l25.58,14.76a4.53,4.53,0,0,1,1.92,5h0A2.56,2.56,0,0,1,1133.6,347.29Z"/><path class="cls-7" d="M1057.3,400.67l-17.35-10a4.53,4.53,0,0,1-1.92-5h0a2.57,2.57,0,0,1,3.9-1.62l17.34,10a4.5,4.5,0,0,1,1.93,5h0A2.57,2.57,0,0,1,1057.3,400.67Z"/><path class="cls-7" d="M1094.13,421.93l-25.57-14.77a4.5,4.5,0,0,1-1.93-5h0a2.57,2.57,0,0,1,3.9-1.63l25.58,14.77a4.51,4.51,0,0,1,1.92,5h0A2.57,2.57,0,0,1,1094.13,421.93Z"/><path class="cls-7" d="M1040.32,309.68l-10.83-6.26a4.52,4.52,0,0,1-1.93-5h0a2.57,2.57,0,0,1,3.9-1.62l10.83,6.25a4.52,4.52,0,0,1,1.93,5h0A2.57,2.57,0,0,1,1040.32,309.68Z"/><path class="cls-7" d="M1072.93,344.74l-33.11-19.12a4.53,4.53,0,0,1-1.93-5h0a2.57,2.57,0,0,1,3.9-1.62l33.11,19.12a4.53,4.53,0,0,1,1.93,5h0A2.57,2.57,0,0,1,1072.93,344.74Z"/><path class="cls-7" d="M1042.39,359.58l-10.84-6.25a4.53,4.53,0,0,1-1.92-5h0a2.56,2.56,0,0,1,3.9-1.62l10.83,6.25a4.52,4.52,0,0,1,1.93,5h0A2.56,2.56,0,0,1,1042.39,359.58Z"/><path class="cls-7" d="M1098.13,456.71l-29-16.71a4.53,4.53,0,0,1-1.92-5h0a2.57,2.57,0,0,1,3.9-1.62l28.94,16.71a4.53,4.53,0,0,1,1.93,5h0A2.57,2.57,0,0,1,1098.13,456.71Z"/><path class="cls-7" d="M1030.25,385.05l-7-4a4.53,4.53,0,0,1-1.93-5h0a2.57,2.57,0,0,1,3.9-1.62l7,4a4.54,4.54,0,0,1,1.93,5h0A2.57,2.57,0,0,1,1030.25,385.05Z"/><path class="cls-7" d="M1023.66,413.72l-8.63-5a4.51,4.51,0,0,1-1.93-5h0a2.57,2.57,0,0,1,3.9-1.63l8.64,5a4.51,4.51,0,0,1,1.92,5h0A2.57,2.57,0,0,1,1023.66,413.72Z"/><path class="cls-7" d="M1057.27,433.12,1034.49,420a4.5,4.5,0,0,1-1.92-5h0a2.57,2.57,0,0,1,3.9-1.63l22.77,13.15a4.53,4.53,0,0,1,1.93,5h0A2.57,2.57,0,0,1,1057.27,433.12Z"/><path class="cls-7" d="M1027.27,432l-16.38-9.45a4.52,4.52,0,0,1-1.92-5h0a2.57,2.57,0,0,1,3.9-1.63l16.37,9.46a4.53,4.53,0,0,1,1.93,5h0A2.57,2.57,0,0,1,1027.27,432Z"/><path class="cls-7" d="M1123,471.12l-10.52-6.07a4.54,4.54,0,0,1-1.93-5h0a2.57,2.57,0,0,1,3.9-1.62l10.52,6.07a4.53,4.53,0,0,1,1.93,5h0A2.57,2.57,0,0,1,1123,471.12Z"/><path class="cls-7" d="M1082.7,382.85l-28.94-16.71a4.5,4.5,0,0,1-1.93-5h0a2.57,2.57,0,0,1,3.9-1.63l28.94,16.71a4.54,4.54,0,0,1,1.93,5h0A2.57,2.57,0,0,1,1082.7,382.85Z"/><path class="cls-7" d="M1086.13,368.6l-50.44-29.13a4.5,4.5,0,0,1-1.93-5h0a2.57,2.57,0,0,1,3.9-1.63L1088.1,362a4.52,4.52,0,0,1,1.93,5h0A2.57,2.57,0,0,1,1086.13,368.6Z"/><path class="cls-7" d="M1056.37,383.89l-28.95-16.71a4.53,4.53,0,0,1-1.93-5h0a2.57,2.57,0,0,1,3.9-1.62l28.95,16.71a4.53,4.53,0,0,1,1.93,5h0A2.57,2.57,0,0,1,1056.37,383.89Z"/><path class="cls-7" d="M1104.65,395.53l-10.51-6.07a4.52,4.52,0,0,1-1.93-5h0a2.56,2.56,0,0,1,3.9-1.62l10.51,6.07a4.52,4.52,0,0,1,1.93,5h0A2.57,2.57,0,0,1,1104.65,395.53Z"/><path class="cls-7" d="M1211.62,392.34l-62.28-36a4.53,4.53,0,0,1-1.92-5h0a2.57,2.57,0,0,1,3.9-1.62l62.27,36a4.54,4.54,0,0,1,1.93,5h0A2.57,2.57,0,0,1,1211.62,392.34Z"/><path class="cls-7" d="M1054,415l-34.79-20.09a4.53,4.53,0,0,1-1.93-5h0a2.57,2.57,0,0,1,3.9-1.62l34.79,20.09a4.53,4.53,0,0,1,1.93,5h0A2.57,2.57,0,0,1,1054,415Z"/><path class="cls-7" d="M1059.2,304.33l-25.58-14.76a4.54,4.54,0,0,1-1.93-5h0a2.56,2.56,0,0,1,3.9-1.62l25.58,14.76a4.54,4.54,0,0,1,1.93,5h0A2.57,2.57,0,0,1,1059.2,304.33Z"/><path class="cls-7" d="M1021.92,445.19l-29.62-17.1a4.52,4.52,0,0,1-1.93-5h0a2.57,2.57,0,0,1,3.9-1.63l29.62,17.11a4.53,4.53,0,0,1,1.93,5h0A2.57,2.57,0,0,1,1021.92,445.19Z"/><path class="cls-13" d="M1055.33,519.34l-.34-12.86,13-77.07-15.29-8.85L1023.1,438l2.61,98.78c.18,6.64,2.8,11.07,6.67,12.42h0l13.62,8,1.5-6.41,2-11.66A36.74,36.74,0,0,0,1055.33,519.34Z"/><path class="cls-14" d="M1056.34,556.68h0c-8.18,4.83-15-.1-15.34-11l-2.61-98.78L1068,429.41l2.61,98.78C1070.91,539.1,1064.52,551.86,1056.34,556.68Z"/><path class="cls-15" d="M1106.14,372.86c0-13-9.13-28.82-20.39-35.32-4.22-2.44-8.15-3.22-11.41-2.56h0l-74.8,14.2,53.67,92.43L1102.67,384h0C1104.86,381.52,1106.14,377.73,1106.14,372.86Z"/><path class="cls-12" d="M1055.5,345.94c-5.81-3.35-11.25-4.72-16-4.35l-3.82.72c-7.67,2.41-12.62,10.28-12.62,22.34,0,20.66,14.5,45.79,32.4,56.12a31.52,31.52,0,0,0,11.94,4.26l20.44-23.81C1087.5,380.72,1073.15,356.14,1055.5,345.94Z"/><path class="cls-16" d="M1056.34,556.68h0c8.18-4.82,14.57-17.58,14.28-28.49l-2.19-82.59-.94-9-13.65,1.15-13.74,8.11-3.07-3.57-12.73,5.15-.45,26.16,0,.61A16.36,16.36,0,0,0,1038,489.79l1.53.21,1.47,55.67C1041.29,556.58,1048.16,561.51,1056.34,556.68Z"/><path class="cls-17" d="M1079.54,410.33c0-25.8-18.11-57.16-40.45-70.06-10.15-5.86-19.42-6.89-26.53-3.86h0l-.14.07-.18.09c-.32.14-.62.29-.93.45a283.36,283.36,0,0,1-136,28.85L862,365.34,970.45,551.26l5.88-11.35a283.31,283.31,0,0,1,91.16-103.29C1074.93,432.44,1079.54,423.34,1079.54,410.33Z"/><path class="cls-18" d="M983.11,509.25c0-49.48-34.74-109.65-77.6-134.39-21.37-12.34-40.72-13.54-54.75-5.5h0l-.08,0-.1.06-12.73,7.46,4.45-.93c-9.06,9.43-14.38,24.29-14.38,43.66,0,49.48,34.74,109.65,77.59,134.4,16.82,9.71,32.39,12.51,45.1,9.35l-2,3,11.72-6.85.18-.11.43-.24h0C974.63,550.93,983.11,533.68,983.11,509.25Z"/><path class="cls-7" d="M974,514.55c0-49.49-34.74-109.66-77.6-134.4-21.08-12.17-40.2-13.49-54.18-5.81l-2,1.14c-.66.42-1.31.87-1.95,1.34l3.95-.83c-9.06,9.43-14.38,24.29-14.38,43.66,0,49.48,34.74,109.65,77.59,134.4,16.82,9.71,32.39,12.51,45.1,9.35l-1.84,2.71C964.29,558.69,974,540.74,974,514.55Z"/><ellipse class="cls-19" cx="893.86" cy="471.26" rx="63.35" ry="109.73" transform="matrix(0.87, -0.5, 0.5, 0.87, -115.88, 510.09)"/><ellipse class="cls-20" cx="893.86" cy="471.26" rx="55.58" ry="96.27" transform="translate(-115.88 510.09) rotate(-30)"/><path class="cls-12" d="M905.51,543.92a107.36,107.36,0,0,1-16.38-11.76,26.29,26.29,0,0,1-2.76-37c11.14-13,29.13-30.6,56.83-49.54-12.4-22.24-29.91-41.76-49.34-53-16.57-9.57-31.75-11.5-43.55-7l-.09,0q-.68.25-1.32.54l-.22.1-1.19.56-.22.11c-.42.22-.84.44-1.25.67l-.08,0a28.17,28.17,0,0,0-2.65,1.68l-.08.05-1.14.84-.22.18c-.33.26-.65.52-1,.8l-.24.2c-.33.29-.66.58-1,.89l-.16.15c-.76.72-1.5,1.49-2.21,2.3l-.08.09c-.31.36-.62.73-.92,1.1l-.22.29-.75,1-.24.34c-.25.34-.48.68-.72,1l-.2.31q-.43.64-.84,1.32l0,.06c-.29.49-.58,1-.86,1.49l-.09.17c-.23.43-.46.87-.68,1.31-.07.14-.13.28-.2.43-.18.37-.36.74-.53,1.12-.07.17-.15.33-.22.5-.16.37-.33.76-.48,1.14-.07.17-.14.32-.2.49l-.51,1.35-.12.31c-.2.57-.39,1.15-.58,1.74a2.17,2.17,0,0,0-.07.24c-.16.5-.31,1-.46,1.52l-.15.56c-.11.42-.22.84-.32,1.26-.06.21-.11.43-.16.65-.1.41-.19.83-.28,1.25,0,.22-.1.43-.14.66L827,418l-.09.54c-.12.65-.22,1.31-.32,2l0,.24c-.08.59-.16,1.18-.23,1.78,0,.23,0,.45-.07.68-.05.46-.09.93-.13,1.4,0,.26-.05.53-.07.79l-.09,1.37c0,.26,0,.53,0,.8,0,.49,0,1-.06,1.49l0,.7c0,.74,0,1.48,0,2.23,0,1.22,0,2.46.08,3.7,0,.44,0,.88.07,1.33,0,.82.09,1.65.16,2.47,0,.43.06.85.1,1.28.09,1,.19,1.93.3,2.9,0,.3.06.61.1.91.15,1.21.33,2.42.52,3.64.08.49.16,1,.25,1.48.13.76.26,1.52.41,2.28.11.58.22,1.16.34,1.74s.29,1.37.44,2.06.27,1.21.41,1.81c.23,1,.47,1.93.72,2.9s.48,1.77.73,2.66l.42,1.47c.23.78.47,1.56.71,2.34.13.42.27.83.4,1.25.94,2.9,2,5.81,3.11,8.69.05.15.11.29.16.43.37.94.75,1.87,1.14,2.8l.3.72c12.12,28.66,33.21,55.19,57.21,69.05,20.95,12.09,39.68,12,52.17,2C934.71,555,920.69,552.68,905.51,543.92Z"/><path class="cls-7" d="M897,548.51C859.44,526.8,829,474,829,430.6c0-22.8,8.41-38.47,21.84-45.08-15.27,5.6-25,21.89-25,46.44,0,43.41,30.48,96.2,68.08,117.91,17.85,10.31,34.1,11.74,46.24,5.77C928.37,560,913.38,557.94,897,548.51Z"/><g class="cls-21"><polygon class="cls-7" points="883.67 454.99 982.45 378.61 1018.32 440.84 902.38 488.41 883.67 454.99"/><ellipse class="cls-22" cx="893.86" cy="471.26" rx="11.1" ry="19.23" transform="matrix(0.87, -0.5, 0.5, 0.87, -115.87, 510.1)"/><path class="cls-23" d="M917.06,437.5c9.48,5.47,17.16,18.77,17.16,29.71,0,4.06-1.06,7.23-2.88,9.32l87-35.69-35.87-62.23-73.14,56.55A15.47,15.47,0,0,1,917.06,437.5Z"/></g><path class="cls-24" d="M1033.1,490.07l-.54-.29a2.22,2.22,0,0,0-2.43,0h0l-3.38,2.09,2.33.38c0,.13,0,.26,0,.4l.61,19a8.54,8.54,0,0,0,3.75,6.69l-.63,2.61,3.39-2.1h0c.84-.41,1.36-1.47,1.31-3l-.6-19C1036.8,494.15,1035.11,491.14,1033.1,490.07Z"/><path class="cls-12" d="M1033.1,490.07l-.54-.29a2.22,2.22,0,0,0-2.43,0h0l-3.38,2.09,2.33.38c0,.13,0,.26,0,.4l.61,19a8.54,8.54,0,0,0,3.75,6.69l-.63,2.61,3.39-2.1h0c.84-.41,1.36-1.47,1.31-3l-.6-19C1036.8,494.15,1035.11,491.14,1033.1,490.07Z"/><path class="cls-25" d="M1030.45,520.83l-.54-.29c-2-1.08-3.7-4.08-3.79-6.71l-.6-19.05c-.08-2.63,1.48-3.88,3.49-2.81l.54.29c2,1.08,3.7,4.08,3.78,6.71l.6,19C1034,520.65,1032.46,521.9,1030.45,520.83Z"/><circle class="cls-26" cx="521.68" cy="134.32" r="46.57"/><path class="cls-27" d="M227.16.35a112.48,112.48,0,0,0,109.91,88.7A112.48,112.48,0,0,0,447,.35Z"/></g></g></svg>