<svg xmlns="http://www.w3.org/2000/svg" xmlns:xlink="http://www.w3.org/1999/xlink" viewBox="0 0 1366 768"><defs><style>.cls-1,.cls-12,.cls-23,.cls-8{fill:none;}.cls-2{isolation:isolate;}.cls-3{fill:#fff;}.cls-4{fill:#35255a;}.cls-5{fill:#cd4843;}.cls-6{fill:#29155a;}.cls-7{clip-path:url(#clip-path);}.cls-23,.cls-8{stroke:#fff;}.cls-12,.cls-23,.cls-8{stroke-miterlimit:10;}.cls-12,.cls-8{stroke-width:2px;}.cls-9{fill:#fcca0e;}.cls-10,.cls-21{fill:#e9ffff;}.cls-10,.cls-20{mix-blend-mode:soft-light;}.cls-11{fill:#dbf0f7;}.cls-12{stroke:#35255a;}.cls-13{fill:#8a3a2c;}.cls-14{fill:#15213d;}.cls-15{fill:#935145;}.cls-16{fill:#1b2a4d;}.cls-17{fill:#e8664e;}.cls-18{fill:#d8d8ff;opacity:0.4;}.cls-19{clip-path:url(#clip-path-2);}.cls-22{fill:#39304a;}.cls-23{stroke-width:1.2px;}</style><clipPath id="clip-path"><path class="cls-1" d="M271.57,375h88.19a0,0,0,0,1,0,0V529.38a0,0,0,0,1,0,0H271.57a40.51,40.51,0,0,1-40.51-40.51V415.46a40.5,40.5,0,0,1,40.5-40.5Z" transform="translate(-83.81 67.57) rotate(-11.44)"/></clipPath><clipPath id="clip-path-2"><circle class="cls-1" cx="497.36" cy="453.59" r="51.07" transform="translate(-164.48 576.38) rotate(-52.88)"/></clipPath></defs><title>Back</title><g class="cls-2"><g id="Layer_2" data-name="Layer 2"><g id="Layer_1-2" data-name="Layer 1"><rect class="cls-3" width="1366" height="768"/><rect class="cls-3" x="2" y="0.16" width="1364" height="767.84"/><path class="cls-4" d="M1366,.16V664.39q-6.32.6-13.13.79c-76.09,2.35-64.58-52.71-118.76-75.09-59.72-24.66-158.28,39.37-217.19,42.11-70.13,3.27-136.48-142-191.41-161.74-219.41-78.76-241.62,114-310.41-6.13-72-125.75,4.73-215,145.91-227.45,72.79-6.42,93.79,22,142.15-28,53-54.81,86.67-128.61,174.67-116,108.25,15.48,84.82-45.68,109.7-92.68Z"/><path class="cls-4" d="M453.11,94.09c-23.5,42.16-78.71,66.21-130,56.63C287.27,144,251,122.7,216.9,133.24c-20.26,6.25-34.36,22.51-47.71,37.79-24.17,27.68-50.32,55.09-84.6,71.39C59.67,254.27,29.42,259.19,2,253.2V0H456.78C469.5,30.55,468.94,65.67,453.11,94.09Z"/><path class="cls-5" d="M674.93,540.81c1.68-2.85,3.54-6.94,3.08-10.06s-2-8.27-5-3.79c0,0,1.06,8.37.2,10.22S674.6,539.64,674.93,540.81Z"/><path class="cls-6" d="M656.17,557.21c10.08,8.92,21.38-10.49,21.74-13.38.92-7.29-5.28-14-5.94-4.93A12.61,12.61,0,0,1,658.33,551C653.23,550.33,658,558,656.17,557.21Z"/><path class="cls-4" d="M480.28,655.68l-13.65,2.76a36.23,36.23,0,0,1-39.06-18.29L349.3,495.29l87.89-17.78L505,602.94A36.24,36.24,0,0,1,480.28,655.68Z"/><g class="cls-7"><path class="cls-4" d="M271.57,375h88.19a0,0,0,0,1,0,0V529.38a0,0,0,0,1,0,0H271.57a40.51,40.51,0,0,1-40.51-40.51V415.46a40.5,40.5,0,0,1,40.5-40.5Z" transform="translate(-83.81 67.57) rotate(-11.44)"/><line class="cls-8" x1="230.2" y1="535.85" x2="388.02" y2="503.92"/><line class="cls-8" x1="225.64" y1="513.28" x2="383.46" y2="481.35"/><line class="cls-8" x1="221.07" y1="490.71" x2="378.89" y2="458.77"/><line class="cls-8" x1="216.5" y1="468.14" x2="374.32" y2="436.2"/><line class="cls-8" x1="211.93" y1="445.56" x2="369.75" y2="413.63"/><line class="cls-8" x1="207.36" y1="422.99" x2="365.19" y2="391.06"/><line class="cls-8" x1="202.8" y1="400.42" x2="360.62" y2="368.48"/></g><path class="cls-9" d="M754.23,536.56,364.08,516.73c-33.63-9-57.07-127.92-30.5-150.74L685.32,196Z"/><path class="cls-9" d="M765.32,357.08c19,94,14.06,174.39-11.09,179.48-21.36,4.32-50.37-47-70.3-120-3.56-13-6.83-26.77-9.71-41s-5.21-28.15-7-41.55C657.17,258.88,664,200.35,685.32,196,710.47,190.94,746.29,263.05,765.32,357.08Z"/><path class="cls-10" d="M765.32,357.08c19,94,14.06,174.39-11.09,179.48-21.36,4.32-50.37-47-70.3-120-3.56-13-6.83-26.77-9.71-41s-5.21-28.15-7-41.55C657.17,258.88,664,200.35,685.32,196,710.47,190.94,746.29,263.05,765.32,357.08Z"/><path class="cls-4" d="M762,357.76c17.47,86.32,14.85,159.69-5.85,163.88-17.56,3.55-42.5-43.87-60.32-111-3.18-12-6.14-24.6-8.78-37.67s-4.83-25.83-6.55-38.12C670.76,266,675.3,212.6,692.87,209,713.56,204.85,744.5,271.44,762,357.76Z"/><path class="cls-11" d="M749.17,360.35a43.14,43.14,0,0,1-53.37,50.24c-3.18-12-6.14-24.6-8.78-37.67s-4.83-25.83-6.55-38.12a42.67,42.67,0,0,1,17.86-8.18A43.13,43.13,0,0,1,749.17,360.35Z"/><path class="cls-4" d="M112.63,574.36H336.36a0,0,0,0,1,0,0V628a0,0,0,0,1,0,0H112.63a3,3,0,0,1-3-3V577.36A3,3,0,0,1,112.63,574.36Z"/><path class="cls-11" d="M127.14,578.79H336.36a0,0,0,0,1,0,0v44.75a0,0,0,0,1,0,0H127.14a2.5,2.5,0,0,1-2.5-2.5V581.29A2.5,2.5,0,0,1,127.14,578.79Z"/><line class="cls-12" x1="124.63" y1="589.98" x2="336.36" y2="589.98"/><line class="cls-12" x1="124.63" y1="601.16" x2="336.36" y2="601.16"/><line class="cls-12" x1="124.63" y1="612.35" x2="336.36" y2="612.35"/><path class="cls-9" d="M150.35,628.37H374a3.12,3.12,0,0,1,3.12,3.12v34.25a3.12,3.12,0,0,1-3.12,3.12H150.35a0,0,0,0,1,0,0V628.37A0,0,0,0,1,150.35,628.37Z"/><path class="cls-11" d="M150.35,634.18H364.23a2.22,2.22,0,0,1,2.22,2.22v24.42a2.22,2.22,0,0,1-2.22,2.22H150.35a0,0,0,0,1,0,0V634.18A0,0,0,0,1,150.35,634.18Z"/><line class="cls-12" x1="150.35" y1="640.24" x2="366.45" y2="640.24"/><line class="cls-12" x1="150.35" y1="652.15" x2="366.45" y2="652.15"/><path class="cls-13" d="M229.06,574.36a13,13,0,0,1-9.36-4.16l-.32-3.43-2.65,1.5-1.29-.84,4.85-7.73,3.85,2.49s-1.87,2.54-.21,4.84C226.48,570.54,232.55,574.35,229.06,574.36Z"/><path class="cls-14" d="M225.38,560.6c-2.24,3.65-4.57,4-8.69,2,3.61-35.31-1.47-43.21-10.54-72.38,3.19-2.24,6.37-4.49,9.57-6.73C228,513.25,229.59,537,225.38,560.6Z"/><path class="cls-15" d="M209.79,574.36a13,13,0,0,1-9.36-4.16l-.33-3.43-2.64,1.5-1.29-.84L201,559.7l3.84,2.49s-1.86,2.54-.2,4.84C207.21,570.54,213.28,574.35,209.79,574.36Z"/><polygon class="cls-16" points="204.93 563.49 197.73 563.3 198.64 484.85 213.06 491.54 204.93 563.49"/><path class="cls-5" d="M213.5,439.55l-7.64,8.59,7.12,5s5.73-8.17,7-8.92S213.5,439.55,213.5,439.55Z"/><path class="cls-9" d="M209.45,443.89s3.49,3.23,5.44,9.93c1.49,5.12.52,17.32,1.44,23.72.65,4.54,4.72,17.72,4.72,17.72s-17.08,5.94-22.67-1.52c-2.22-2.95,3.17-14.4,1.57-34.37C199.08,448.51,205.66,445.11,209.45,443.89Z"/><path class="cls-17" d="M231,470.24c5.22-.07,10.16-2.56,15.69-3.86.91-.21,5.39-1.84,4.27-3-2.4-2.46-7.36-1.54-11.59,0a41.73,41.73,0,0,1-7,2.06C228.45,466.29,230.37,469.28,231,470.24Z"/><path class="cls-9" d="M214.89,453.82c2.41,10.74,19.94,9.92,25.36,8.89,4.84-.91,8.37,2.46,5.37,4.14-10,5.6-27.41,4.31-33-1.3S210.58,456.24,214.89,453.82Z"/><path class="cls-17" d="M225.9,440.55c-1.37,4-2.63,8.9-5.86,7.8s-7.21-7.73-5.84-11.77,5.1-6.42,8.33-5.32S227.27,436.51,225.9,440.55Z"/><path class="cls-14" d="M225.12,430c2.24.74,1.12,2.22,1.08,3.8,1-.07,2.32-.1,2.91.86s-.26,3-1.14,3.7c-2,1.57-4.83-1.85-6.78-2.25-1.68-.35-3.68.88-3.77,2.15-.06.78-4.16,3.05-5.4,3-1-.08-1.32-1.35-1.16-2.87.13-1.22,1.11-1.65,1.28-2.83a11.29,11.29,0,0,1,.78-3.29c.9-1.94,3-4.4,5.36-4.53,1.52-.09,1.79,1.09,3,1.72S223.87,429.59,225.12,430Z"/><path class="cls-3" d="M224,445.3l-2-.7S221.54,449.16,224,445.3Z"/><path class="cls-6" d="M678.06,679l-19.79-.19.09-9.34,5.11,0,2.95,4.7c2.77.73,8.18.49,10,2.71Z"/><path class="cls-5" d="M663.47,669.49l-5.11,0c.66-25.8,5.16-41.53-10.19-73.1q5.49-3.27,11-6.53C675.05,624.15,670.38,632.78,663.47,669.49Z"/><path class="cls-4" d="M655.88,679l-19.79-.19.09-9.34,5.11,0,3,4.7c2.77.73,8.18.49,10,2.71Z"/><polygon class="cls-17" points="641.29 669.49 636.18 669.44 640.04 590.56 655.83 597.93 641.29 669.49"/><path class="cls-5" d="M648.44,533.79l1.24,16.13,7.21,4.13s-.63-12.2.82-13S648.44,533.79,648.44,533.79Z"/><path class="cls-4" d="M649.39,546.12s7.38,6.43,7.36,2c0-2.47,6.83,8,7.6,11.52.66,3-.37,9-.37,9l8.71,63.12s-33.07,5.06-37.25-4.47c-6.32-14.38,10.06-48.68,6.55-70.78C641.49,553.3,645.1,547.32,649.39,546.12Z"/><path class="cls-17" d="M622.07,541.49c-2.5-3-5.26-7.41-4.57-10.74s3-8.84,7.41-4c0,0-1.57,8.94-.29,10.91S622.55,540.24,622.07,541.49Z"/><path class="cls-4" d="M649.9,559c-15,9.53-31.73-11.2-32.27-14.29-1.36-7.79,7.85-15,8.83-5.26s12.65,13.62,20.22,12.91S647.14,559.8,649.9,559Z"/><path class="cls-17" d="M660.59,533.2c.14,4.85.73,10.54-3.16,10.66s-10.76-5.4-10.91-10.25,2.9-8.87,6.78-9S660.45,528.35,660.59,533.2Z"/><path class="cls-16" d="M644.43,528.28a7.4,7.4,0,0,0-.66,6.78,7.6,7.6,0,0,0,5.15,4.47c-.68-1.07,0-2.46.76-3.48s1.61-2.23,1.21-3.43c-.13-.39-.38-.72-.52-1.1a1,1,0,0,1,.17-1.13,1.3,1.3,0,0,1,.73-.24,13.89,13.89,0,0,1,10.34,3.27,26.6,26.6,0,0,0-1.15-5.31,10.08,10.08,0,0,0-3-4.47,7.08,7.08,0,0,0-5.08-1.42c-2.58.22-3.79,3.3-3.79,3.3S646.52,525.22,644.43,528.28Z"/><path class="cls-3" d="M660.34,538.08l-3.51.25S659.06,542.74,660.34,538.08Z"/><rect class="cls-15" x="462.24" y="504.81" width="15.45" height="80.48" transform="translate(208.67 -125.53) rotate(19.48)"/><path class="cls-15" d="M516.55,399.38a57.5,57.5,0,1,0,35,73.37A57.5,57.5,0,0,0,516.55,399.38Zm31.39,61.34A51.08,51.08,0,1,1,504.5,403,51.1,51.1,0,0,1,547.94,460.72Z"/><circle class="cls-18" cx="497.36" cy="453.59" r="51.07" transform="translate(-85.75 789.88) rotate(-72.34)"/><g class="cls-19"><g class="cls-20"><rect class="cls-21" x="472.1" y="362.39" width="13.35" height="151.03" transform="translate(481.29 -210.92) rotate(47.78)"/><rect class="cls-21" x="513.79" y="416.53" width="6.68" height="151.03" transform="translate(533.96 -221.57) rotate(47.78)"/><rect class="cls-21" x="481.65" y="381.52" width="28.98" height="151.03" transform="translate(501.16 -217.51) rotate(47.78)"/></g></g><path class="cls-17" d="M476.54,549.24l2.54-6.9s3.84,4.21-1.54,13.79C472.55,565,476.54,549.24,476.54,549.24Z"/><path class="cls-11" d="M453.1,551.91s11.79,13.58,22.49-1.23c.66,1.89,2,7.08,2,7.08s-11.11,18.82-27.72,3.29C446.4,557.85,453.1,551.91,453.1,551.91Z"/><path class="cls-9" d="M424,593.55c-1.15,4.84,1.9,78.89,2.93,78.89a18.83,18.83,0,0,1,5.84-.91c2.58.18,4.86-49.85,6.36-57.5,2.87,9.7,7.53,58.06,9.87,58.69,3,.79,5.37,2.32,5.63-1.53,1.39-20.07-1.48-78.89-6.18-83.28C443.28,583.12,425.75,586,424,593.55Z"/><path class="cls-22" d="M457.8,676.11c0,2.79-3.38,2.86-5.35,2.86s-4.05,0-4.05-4.23c0-2.79,1.48-5.42,3.45-5.42S457.8,673.31,457.8,676.11Z"/><path class="cls-22" d="M435.09,676.11c0,2.79-3.38,2.86-5.36,2.86s-4,0-4-4.23c0-2.79,1.48-5.42,3.45-5.42S435.09,673.31,435.09,676.11Z"/><path class="cls-5" d="M438.24,532.63s-1.63,10.61-4.87,13.43,9.74,2.13,9.74,2.13-1-5.37,1.72-5.58S438.24,532.63,438.24,532.63Z"/><path class="cls-11" d="M433.19,542.4c.41,4.05-5,4.93-7.67,6.13-5.34,2.38-4.41,41.61-1.57,45,0,0,21.25,4.91,26.09-.61,2.38-2.72,3.06-41,3.06-41-1.65-1-9.75-4.2-9.48-6.4C443.77,544.25,434.26,542,433.19,542.4Z"/><path class="cls-17" d="M448.78,532.61c0,4.24.65,10.6-1.55,11.37-1.94.68-5.24-1.82-6.5-4s-.56-4.27-.56-6.45c0-4.24-3.31-8.63.93-8.63A7.68,7.68,0,0,1,448.78,532.61Z"/><path class="cls-9" d="M432.62,534.9c-1.48-4.69.47-10.3,6.32-11.39,2.81-.52,4.56.31,7,1.92,1.64,1.08,3.49,4.25,5.79,3.17-1.88,3.72-4,.06-6.22,1.53-1.18.77-.66,4.13-2,4.52a14,14,0,0,1-2.41-.12c-1.2,2.38,1,6.43-3.27,5.48C435.72,539.53,433.26,536.89,432.62,534.9Z"/><path class="cls-11" d="M285.52,339.15h-62l-10,72.9-17.8-72.9A24.59,24.59,0,0,1,171,314.56V279.82a24.6,24.6,0,0,1,24.59-24.6h89.89a24.61,24.61,0,0,1,24.6,24.6v34.74A24.6,24.6,0,0,1,285.52,339.15Z"/><path class="cls-9" d="M259.55,281.71c0,10.49-8.48,30.44-19,30.44-3.1,0-6-1.73-8.58-4.45-6.18-6.5-10.39-18.6-10.39-26a19,19,0,1,1,38,0Z"/><path class="cls-10" d="M240.57,262.73v49.42s-3.6-1.66-8.58-4.45c-6.18-6.5-10.39-18.6-10.39-26A19,19,0,0,1,240.57,262.73Z"/><rect class="cls-4" x="231.81" y="307.89" width="17.53" height="17.53"/><path class="cls-4" d="M237.49,303.36c0,3.78-.78,6.85-1.75,6.85s-1.74-3.07-1.74-6.85.78-6.85,1.74-6.85S237.49,299.57,237.49,303.36Z"/><path class="cls-4" d="M247.15,303.36c0,3.78-.78,6.85-1.74,6.85s-1.75-3.07-1.75-6.85.78-6.85,1.75-6.85S247.15,299.57,247.15,303.36Z"/><line class="cls-23" x1="231.81" y1="313.83" x2="249.34" y2="313.83"/><line class="cls-23" x1="231.81" y1="319.22" x2="249.34" y2="319.22"/><rect class="cls-4" x="237.49" y="325.41" width="6.18" height="3.84"/></g></g></g></svg>
